<svg xmlns="http://www.w3.org/2000/svg" width="190" height="48" fill="none"><path fill="#2B2A29" d="M80.603 31.229c-2.102 2.082-4.66 3.123-7.675 3.123-3.015 0-5.573-1.041-7.675-3.123-2.102-2.082-3.153-4.65-3.153-7.705 0-3.055 1.05-5.623 3.153-7.706 2.102-2.082 4.66-3.123 7.675-3.123 3.015 0 5.573 1.041 7.675 3.123 2.102 2.083 3.153 4.65 3.153 7.706 0 3.054-1.05 5.623-3.153 7.705ZM68.6 27.986c1.16 1.15 2.603 1.726 4.329 1.726 1.725 0 3.168-.575 4.329-1.726 1.16-1.151 1.74-2.638 1.74-4.462 0-1.826-.58-3.313-1.74-4.463-1.161-1.149-2.604-1.725-4.33-1.725-1.725 0-3.167.575-4.328 1.726-1.161 1.15-1.74 2.638-1.74 4.462 0 1.824.579 3.313 1.74 4.462Zm31.968 5.95h-5.058l-4.76-6.561v6.56h-4.463V13.11h4.463v12.466l4.462-6.516h5.206l-5.415 7.437 5.564 7.437.001.002Zm4.731-5.654c.516 1.39 1.705 2.082 3.569 2.082 1.209 0 2.162-.376 2.857-1.13l3.569 2.052c-1.467 2.042-3.629 3.064-6.486 3.064-2.498 0-4.497-.742-5.994-2.232-1.498-1.487-2.246-3.36-2.246-5.623 0-2.242.74-4.11 2.217-5.608 1.478-1.497 3.377-2.247 5.697-2.247 2.162 0 3.962.75 5.4 2.247 1.437 1.497 2.157 3.366 2.157 5.608 0 .635-.06 1.23-.178 1.786h-10.562v.001Zm-.09-3.33h6.396c-.437-1.568-1.488-2.351-3.153-2.351-1.726 0-2.807.783-3.243 2.35Zm22.134-5.892h4.761l-5.089 14.43c-.833 2.34-1.929 4.015-3.288 5.028-1.359 1.01-3.089 1.467-5.191 1.367V35.72c1.031 0 1.825-.183 2.38-.55.554-.366 1.001-1.005 1.339-1.918l-5.921-14.191h4.908l3.303 9.104 2.797-9.104h.001Zm36.088 13.017c-1.527 1.517-3.391 2.275-5.593 2.275s-4.066-.758-5.593-2.275c-1.528-1.518-2.291-3.376-2.291-5.578 0-2.202.763-4.061 2.291-5.579 1.527-1.517 3.391-2.275 5.593-2.275s4.066.758 5.593 2.275c1.527 1.518 2.29 3.377 2.29 5.578 0 2.203-.764 4.061-2.29 5.579Zm-8.033-3.05c.654.655 1.467.981 2.44.981.973 0 1.785-.326 2.44-.981s.981-1.497.981-2.529c0-1.03-.326-1.873-.981-2.528-.655-.654-1.467-.981-2.44-.981-.973 0-1.786.326-2.44.981-.655.655-.981 1.498-.981 2.529 0 1.03.326 1.873.981 2.528Zm16.779-5.623c0 .298.253.54.758.73.506.188 1.116.376 1.829.564.714.188 1.427.431 2.142.73.714.298 1.324.787 1.829 1.472.506.684.758 1.542.758 2.573 0 1.608-.595 2.822-1.786 3.645-1.189.823-2.658 1.234-4.402 1.234-3.135 0-5.267-1.18-6.396-3.54l3.867-2.201c.397 1.17 1.24 1.755 2.529 1.755 1.071 0 1.607-.308 1.607-.923 0-.296-.253-.544-.758-.742a16.942 16.942 0 0 0-1.829-.58 15.199 15.199 0 0 1-2.142-.745 4.57 4.57 0 0 1-1.828-1.442c-.507-.655-.758-1.457-.758-2.41 0-1.548.559-2.747 1.68-3.6 1.121-.852 2.505-1.279 4.151-1.279 1.229 0 2.35.273 3.363.818 1.011.545 1.826 1.334 2.44 2.365l-3.807 2.052c-.477-.873-1.141-1.309-1.994-1.309-.833 0-1.249.278-1.249.833h-.004Zm17.821-.06h-3.065v5.267c0 .594.238.97.715 1.13.476.159 1.259.209 2.35.149v4.046c-2.837.298-4.801.025-5.892-.818-1.091-.843-1.635-2.346-1.635-4.507v-5.267h-2.38V19.06h2.38v-2.827l4.462-1.339v4.166h3.065v4.284Zm-48.822-10.236c2.044 0 3.768.695 5.177 2.083 1.408 1.389 2.112 3.074 2.112 5.056 0 1.984-.704 3.67-2.112 5.059-1.409 1.39-3.133 2.082-5.177 2.082h-3.123v6.546h-4.76V13.109h7.883Zm0 9.818c.733 0 1.34-.258 1.814-.773.477-.516.715-1.151.715-1.904 0-.754-.238-1.39-.715-1.904-.476-.514-1.081-.773-1.814-.773h-3.123v5.355h3.123v-.001Z"/><path fill="url(#a)" fill-rule="evenodd" d="M23.885 0C37.077 0 47.77 10.693 47.77 23.885c0 13.192-10.693 23.885-23.885 23.885C10.693 47.77 0 37.077 0 23.885 0 10.693 10.693 0 23.885 0Zm0 9.3c8.055 0 14.584 6.53 14.584 14.585S31.94 38.47 23.885 38.47 9.301 31.94 9.301 23.885 15.83 9.301 23.885 9.301Z" clip-rule="evenodd"/><path fill="#1F2428" fill-rule="evenodd" d="M40.471 41.071a23.927 23.927 0 0 1-6.9 4.652L26.68 38.2a14.562 14.562 0 0 0 7.508-3.991l6.284 6.862h-.002Z" clip-rule="evenodd" opacity=".2"/><path fill="url(#b)" fill-rule="evenodd" d="m51.088.253-8.731 8.488a23.99 23.99 0 0 0-7.62-6.141L37.168.252h13.92v.001ZM35.65 15.263l-8.285 8.053 22.521 23.861H36.593L13.693 22.916l13.67-13.197a14.598 14.598 0 0 1 8.285 5.543h.001Z" clip-rule="evenodd"/><path fill="#1F2428" fill-rule="evenodd" d="M26.608 10.448a14.595 14.595 0 0 1 8.267 5.567l.774-.753a14.598 14.598 0 0 0-8.285-5.543l-.756.73Z" clip-rule="evenodd" opacity=".2"/><defs><linearGradient id="a" x1=".612" x2="54.7" y1="47.77" y2="37.874" gradientUnits="userSpaceOnUse"><stop stop-color="#5B52A3"/><stop offset="1" stop-color="#40B8EA"/></linearGradient><linearGradient id="b" x1="13.693" x2="49.952" y1="22.916" y2="22.916" gradientUnits="userSpaceOnUse"><stop stop-color="#54E1AB"/><stop offset="1" stop-color="#7EEEC1"/></linearGradient></defs></svg>